<?xml version="1.0" standalone="no"?>
<!DOCTYPE svg PUBLIC "-//W3C//DTD SVG 20010904//EN"
 "http://www.w3.org/TR/2001/REC-SVG-20010904/DTD/svg10.dtd">
<svg version="1.0" xmlns="http://www.w3.org/2000/svg"
 width="1860.000000pt" height="869.000000pt" viewBox="0 0 1860.000000 869.000000"
 preserveAspectRatio="xMidYMid meet">
<metadata>
Created by potrace 1.13, written by Peter Selinger 2001-2015
</metadata>
<g transform="translate(0.000000,869.000000) scale(0.100000,-0.100000)"
fill="#000000" stroke="none">
<path d="M0 4345 l0 -4345 9300 0 9300 0 0 4345 0 4345 -9300 0 -9300 0 0
-4345z m10940 3770 c91 -37 305 -125 475 -195 171 -70 396 -162 500 -205 105
-43 237 -96 293 -120 l104 -42 -2 -169 c0 -92 -2 -169 -3 -170 -1 -1 -254
-104 -562 -229 -308 -125 -585 -238 -615 -251 -91 -39 -449 -184 -455 -184 -3
0 -5 82 -5 183 l0 182 600 230 c330 127 598 234 597 239 -2 5 -272 113 -600
240 l-597 230 0 176 c0 97 3 179 6 183 7 6 18 2 264 -98z m700 -2180 l0 -375
340 0 340 0 0 -185 0 -185 -341 0 -340 0 4 -632 c4 -676 5 -697 56 -796 31
-60 101 -119 166 -137 71 -21 200 -21 289 -1 37 9 71 16 77 16 5 0 9 -76 9
-184 l0 -184 -27 -6 c-16 -3 -66 -10 -113 -15 -322 -38 -570 -17 -723 60 -121
62 -196 160 -239 316 -22 76 -22 94 -26 821 l-3 742 -220 0 -219 0 0 185 0
185 220 0 220 0 0 269 0 269 178 72 c97 40 213 87 257 106 44 18 83 33 88 33
4 1 7 -168 7 -374z m-9879 -358 c225 -59 382 -187 450 -366 48 -129 49 -146
49 -1062 l0 -859 -255 0 -254 0 -3 127 -3 128 -33 -51 c-46 -72 -128 -146
-201 -184 -106 -53 -198 -72 -351 -73 -158 -1 -233 15 -355 73 -143 69 -241
178 -290 323 -21 65 -25 93 -25 202 0 147 15 218 66 315 140 267 459 406 1017
442 l177 12 0 167 c0 227 -17 300 -90 382 -51 59 -119 82 -235 82 -93 0 -105
-2 -167 -33 -39 -19 -80 -49 -98 -70 -34 -41 -70 -128 -70 -170 0 -15 -3 -37
-6 -49 l-6 -23 -254 0 -254 0 0 56 c0 124 59 291 138 390 77 98 207 181 350
224 139 42 206 50 412 46 169 -3 208 -7 291 -29z m2081 0 c254 -67 423 -220
497 -452 30 -91 51 -219 51 -302 l0 -43 -279 0 -279 0 -6 68 c-25 254 -121
375 -311 389 -85 7 -166 -14 -238 -59 -263 -167 -302 -761 -76 -1148 100 -172
271 -311 459 -373 194 -64 474 -65 688 -1 l22 6 0 -161 c0 -188 18 -163 -151
-204 -182 -45 -309 -60 -509 -60 -264 0 -430 33 -615 123 -124 59 -201 117
-297 219 -147 157 -242 368 -288 641 -18 107 -24 374 -11 487 51 434 269 726
634 848 128 42 231 55 432 51 154 -3 194 -7 277 -29z m1949 17 c396 -68 597
-300 634 -731 l7 -83 -285 0 -284 0 -5 83 c-17 256 -148 391 -364 374 -242
-18 -386 -224 -401 -572 -21 -500 217 -889 619 -1013 107 -33 184 -44 323 -43
119 0 285 23 349 47 14 5 16 -13 16 -155 l0 -161 -27 -11 c-51 -19 -223 -58
-336 -75 -151 -23 -435 -23 -572 0 -500 84 -814 400 -910 915 -55 299 -31 645
61 872 84 208 257 389 450 475 72 32 211 72 289 83 104 15 334 12 436 -5z
m2059 -13 c296 -81 495 -295 565 -611 10 -44 19 -143 22 -242 l6 -168 -671 0
c-445 0 -673 -3 -677 -10 -4 -6 -2 -50 4 -99 53 -434 345 -770 725 -836 120
-21 344 4 490 55 33 11 61 20 63 20 1 0 3 -83 3 -184 l0 -185 -57 -16 c-104
-30 -245 -54 -398 -65 -307 -25 -568 18 -763 125 -91 50 -135 83 -215 163
-170 166 -276 400 -324 707 -23 151 -23 464 1 594 82 445 313 688 730 767 108
20 399 12 496 -15z m2228 14 c104 -25 170 -63 253 -145 86 -85 143 -187 181
-325 22 -79 23 -87 26 -957 l3 -878 -265 0 -265 0 -4 793 c-4 821 -6 857 -47
936 -27 53 -59 78 -115 91 -122 27 -262 -25 -364 -136 -96 -106 -166 -258
-213 -466 -20 -87 -22 -129 -25 -655 l-4 -563 -265 0 -264 0 0 1135 0 1135
265 0 265 0 2 -212 3 -213 42 77 c113 208 254 325 455 378 90 23 247 26 336 5z
m5912 -260 l0 -275 -43 0 c-23 0 -79 -5 -123 -10 -372 -47 -536 -224 -574
-619 -5 -58 -10 -339 -10 -623 l0 -518 -265 0 -265 0 0 1135 0 1135 265 0 265
0 2 -211 3 -211 68 104 c163 250 350 362 610 367 l67 1 0 -275z m1345 246
c388 -103 594 -414 595 -898 l0 -123 -675 0 -675 0 0 -27 c0 -60 31 -227 55
-298 51 -154 158 -323 263 -416 238 -212 519 -262 876 -158 38 12 75 23 82 26
12 4 14 -27 14 -180 l0 -186 -52 -14 c-216 -61 -510 -89 -723 -67 -630 63
-975 484 -1002 1225 -15 416 79 711 291 913 118 112 263 182 451 216 120 23
394 16 500 -13z m-4252 -823 c3 -851 4 -856 51 -946 35 -67 121 -94 240 -73
92 15 154 51 230 131 101 108 181 284 222 493 14 68 17 180 21 640 l5 557 264
0 264 0 0 -1135 0 -1135 -265 0 -265 0 0 205 c0 113 -3 205 -7 205 -5 0 -25
-33 -45 -73 -96 -186 -261 -321 -458 -374 -90 -24 -265 -23 -344 1 -215 64
-352 218 -418 466 -22 85 -22 90 -25 963 l-4 877 265 0 265 0 4 -802z m-12373
-3037 l5 -264 245 0 245 0 3 266 2 267 65 0 65 0 0 -615 0 -615 -65 0 -65 0
-2 293 -3 292 -230 3 c-126 1 -239 0 -250 -2 -19 -5 -20 -13 -20 -293 l0 -288
-67 -3 -68 -3 0 616 0 616 68 -3 67 -3 5 -264z m986 187 l1 -78 -78 0 -79 0 0
80 0 81 78 -3 77 -3 1 -77z m1044 -200 l0 -282 26 52 c97 194 347 204 431 17
16 -36 18 -78 21 -387 l3 -348 -60 0 -60 0 -3 318 c-4 346 -7 366 -63 410 -68
54 -173 3 -232 -112 -51 -100 -56 -128 -62 -376 l-6 -235 -57 -3 -58 -3 0 616
0 615 60 0 60 0 0 -282z m3529 276 c30 -6 31 -8 31 -61 0 -53 -1 -55 -22 -48
-13 4 -54 9 -93 12 -130 8 -185 -51 -185 -199 l0 -78 120 0 120 0 0 -50 0 -50
-120 0 -120 0 0 -375 0 -375 -60 0 -60 0 -2 373 -3 372 -67 3 -68 3 0 49 0 50
70 0 70 0 0 98 c1 157 50 236 170 273 31 9 177 11 219 3z m6511 -5 c79 -12
170 -54 226 -102 49 -43 105 -146 130 -242 15 -57 19 -106 19 -260 0 -167 -3
-200 -23 -268 -29 -103 -54 -149 -110 -209 -93 -99 -183 -127 -444 -135 l-188
-6 0 616 0 617 163 0 c89 0 191 -5 227 -11z m1388 -601 l-3 -613 -57 -3 -58
-3 0 616 0 615 60 0 60 0 -2 -612z m352 532 l0 -80 -77 0 -78 0 3 80 4 80 74
0 74 0 0 -80z m3408 -532 l-3 -613 -57 -3 -57 -3 -3 66 -3 65 -35 -47 c-108
-145 -337 -120 -416 45 -30 63 -44 134 -50 242 -14 250 69 448 205 488 103 31
211 -5 269 -92 l32 -48 0 256 0 256 60 0 60 0 -2 -612z m-15761 241 c50 -18
103 -61 128 -103 l25 -41 0 68 0 68 58 -3 57 -3 3 -435 c2 -281 -1 -458 -8
-499 -20 -118 -79 -200 -175 -242 -63 -28 -226 -37 -330 -17 l-70 13 -3 62 -3
62 58 -22 c44 -16 81 -21 153 -22 83 0 102 3 145 26 40 20 55 36 78 80 25 49
29 68 34 184 l5 130 -30 -47 c-85 -130 -262 -151 -380 -44 -108 97 -137 433
-54 627 55 127 197 200 309 158z m2040 -12 c113 -59 163 -183 163 -407 0 -294
-98 -452 -280 -452 -90 0 -161 38 -198 107 -16 29 -17 20 -22 -210 l-5 -240
-63 -3 -62 -3 2 603 3 603 60 0 60 0 3 -58 3 -57 32 42 c19 24 56 55 87 71 48
25 63 28 120 24 36 -2 79 -11 97 -20z m729 -5 c97 -50 154 -144 157 -262 l2
-71 -240 -2 -240 -2 2 -80 c4 -147 75 -268 185 -315 46 -20 64 -22 143 -17 49
3 100 9 113 13 21 6 22 3 22 -39 0 -27 -6 -49 -14 -57 -8 -6 -53 -15 -99 -19
-312 -29 -475 114 -490 429 -12 237 74 398 238 441 55 15 176 4 221 -19z m712
-38 l3 -61 -46 -6 c-110 -16 -184 -88 -225 -222 -7 -24 -15 -135 -19 -275 l-6
-235 -57 -3 -58 -3 0 426 0 426 58 -3 57 -3 5 -80 c5 -77 6 -79 18 -49 33 78
158 158 237 151 29 -2 30 -3 33 -63z m1125 32 c128 -62 187 -194 187 -414 0
-161 -33 -266 -109 -345 -62 -66 -125 -90 -238 -89 -212 1 -333 156 -334 428
-2 241 76 389 233 440 70 23 193 14 261 -20z m745 -32 l3 -61 -49 -7 c-98 -13
-180 -93 -219 -211 -13 -39 -17 -104 -21 -288 l-4 -238 -56 3 -57 3 0 420 0
420 58 3 57 3 1 -78 c0 -76 0 -78 17 -53 66 95 159 152 242 147 23 -2 25 -6
28 -63z m535 55 c54 -15 104 -63 124 -119 l17 -48 28 48 c83 146 268 173 365
55 58 -70 64 -121 61 -475 l-3 -315 -57 -3 -56 -3 -4 318 c-3 263 -6 324 -19
353 -46 102 -149 105 -224 6 -66 -87 -95 -239 -95 -502 l0 -175 -57 3 -58 3
-5 325 c-4 286 -7 329 -23 357 -18 35 -62 63 -97 63 -49 0 -112 -54 -149 -127
-45 -89 -54 -148 -60 -388 l-6 -230 -55 0 -55 0 -3 423 -2 423 57 -3 58 -3 5
-89 5 -90 23 57 c49 118 160 171 285 136z m1175 -4 c62 -19 105 -54 135 -109
21 -40 22 -52 25 -393 l3 -353 -56 0 -55 0 0 56 0 56 -50 -45 c-29 -26 -72
-53 -100 -62 -95 -32 -217 -17 -274 33 -56 50 -84 190 -53 265 15 35 79 97
124 120 55 29 149 50 243 56 l95 6 3 78 c2 59 -2 87 -17 121 -27 62 -60 81
-141 81 -88 -1 -126 -22 -153 -86 l-21 -49 -63 0 c-61 0 -63 1 -63 25 0 63 54
141 122 176 78 40 206 50 296 24z m855 -22 c24 -16 51 -49 66 -78 l26 -49 3
-354 3 -353 -58 3 -58 3 -5 325 c-6 362 -8 375 -74 407 -76 36 -165 -16 -220
-129 -54 -109 -66 -182 -66 -411 l0 -198 -57 3 -58 3 -3 423 -2 422 60 0 60 0
0 -96 0 -96 33 63 c55 106 134 152 246 145 49 -3 72 -10 104 -33z m740 4 c31
-16 67 -44 83 -64 27 -36 54 -115 54 -161 0 -22 -2 -23 -72 -20 l-73 3 -6 40
c-6 50 -21 77 -55 104 -63 49 -148 36 -212 -33 -59 -64 -76 -130 -69 -265 6
-138 25 -189 98 -263 74 -75 130 -93 271 -86 l99 5 -3 -46 c-3 -43 -5 -46 -38
-53 -19 -5 -80 -8 -135 -9 -211 -1 -342 82 -408 259 -18 49 -22 79 -22 202 0
125 3 153 22 204 56 148 167 220 329 213 63 -3 93 -9 137 -30z m617 17 c39
-12 66 -29 106 -68 60 -61 84 -123 84 -218 l0 -58 -237 -2 -238 -3 1 -80 c2
-132 50 -229 148 -296 47 -33 52 -34 145 -34 53 0 111 3 129 7 l32 8 0 -50 c0
-27 -4 -51 -9 -54 -20 -13 -180 -22 -246 -15 -159 17 -260 101 -316 261 -31
86 -34 304 -5 388 21 65 67 135 109 170 69 56 194 75 297 44z m2259 0 c110
-32 180 -134 189 -274 l4 -75 -238 0 -239 0 -3 -50 c-9 -136 66 -285 173 -343
32 -18 190 -24 253 -10 l32 8 0 -50 c0 -27 -4 -51 -9 -54 -20 -13 -180 -22
-248 -15 -218 23 -343 192 -343 463 1 164 39 268 126 345 77 68 192 88 303 55z
m2080 0 c79 -23 143 -91 170 -179 12 -37 21 -89 21 -116 l0 -49 -241 0 -242 0
5 -87 c10 -155 67 -256 174 -309 51 -25 61 -26 152 -21 53 2 105 8 115 12 15
6 17 1 17 -43 0 -59 -2 -60 -114 -72 -312 -32 -485 131 -486 456 0 50 4 116
10 145 14 74 67 176 112 212 77 62 201 83 307 51z m751 -48 l0 -63 -39 -6
c-91 -12 -177 -83 -211 -174 -30 -82 -40 -168 -40 -376 l0 -188 -57 3 -58 3 0
420 0 420 57 3 57 3 3 -82 3 -82 32 51 c46 74 141 130 221 132 l32 0 0 -64z
m519 29 c90 -49 137 -136 142 -259 l2 -67 -239 -2 -239 -2 1 -70 c1 -134 60
-249 158 -310 46 -28 56 -30 145 -30 53 0 110 3 126 7 l30 7 -5 -52 c-5 -46
-8 -51 -35 -59 -55 -15 -226 -12 -285 5 -200 59 -305 267 -272 537 17 143 68
233 159 287 61 35 95 43 183 39 61 -2 86 -8 129 -31z m-15371 -390 c1 -220 0
-410 -3 -422 -5 -20 -12 -23 -60 -23 l-55 0 0 425 0 426 58 -3 57 -3 3 -400z
m12822 393 c0 -5 0 -195 0 -423 l0 -416 -57 3 -58 3 -3 410 c-1 225 0 416 3
423 5 14 115 14 115 0z m228 0 c5 -7 62 -155 127 -328 64 -173 118 -317 120
-318 2 -2 52 145 111 327 l108 331 57 0 c32 0 60 -4 63 -8 5 -8 -261 -805
-277 -829 -5 -8 -30 -13 -63 -13 -50 0 -55 2 -65 28 -32 79 -309 815 -309 818
0 11 119 2 128 -8z m-2820 -745 l-3 -88 -87 -3 -88 -3 0 91 0 90 90 0 91 0 -3
-87z m6350 0 l-3 -88 -82 -3 -82 -3 -3 91 -3 90 88 0 88 0 -3 -87z"/>
<path d="M1575 4279 c-115 -12 -268 -53 -351 -94 -143 -70 -214 -162 -222
-291 -13 -198 124 -312 339 -282 87 11 161 52 227 123 104 111 168 274 179
458 l6 97 -49 -1 c-27 -1 -85 -5 -129 -10z"/>
<path d="M7393 5248 c-147 -54 -249 -176 -278 -331 l-7 -37 411 0 c361 0 412
2 418 15 9 26 -17 137 -45 188 -33 62 -99 122 -170 155 -48 22 -74 27 -162 29
-89 3 -114 0 -167 -19z"/>
<path d="M16882 5250 c-85 -31 -159 -89 -214 -168 -32 -46 -68 -141 -68 -179
l0 -23 413 2 412 3 -2 51 c-5 121 -84 239 -199 295 -61 30 -75 33 -178 36 -90
2 -121 -1 -164 -17z"/>
<path d="M12530 1375 l0 -498 113 6 c63 3 132 12 158 21 92 33 151 109 186
237 22 83 25 376 4 459 -33 131 -94 211 -190 246 -27 10 -91 18 -158 21 l-113
6 0 -498z"/>
<path d="M17565 1516 c-84 -37 -125 -154 -125 -352 0 -212 57 -314 174 -314
40 0 52 5 90 40 81 75 120 225 98 381 -19 130 -66 214 -139 245 -40 17 -59 17
-98 0z"/>
<path d="M2062 1513 c-68 -33 -112 -159 -112 -325 0 -212 55 -318 165 -318
116 0 197 136 197 330 0 155 -51 274 -136 314 -43 20 -72 20 -114 -1z"/>
<path d="M4014 1516 c-43 -19 -96 -85 -119 -148 -16 -43 -20 -77 -20 -188 1
-116 4 -143 23 -190 39 -96 90 -140 165 -140 44 0 54 4 87 38 93 93 118 396
45 548 -39 79 -110 111 -181 80z"/>
<path d="M4722 1509 c-47 -23 -90 -78 -94 -119 l-3 -25 163 -3 c186 -3 188 -2
152 72 -40 84 -136 117 -218 75z"/>
<path d="M6566 1520 c-42 -13 -91 -65 -116 -122 -30 -69 -42 -194 -29 -297 20
-168 84 -251 194 -251 64 0 109 22 144 71 54 74 79 218 61 352 -26 192 -123
286 -254 247z"/>
<path d="M9127 1140 c-72 -13 -152 -55 -176 -94 -14 -21 -21 -50 -21 -81 0
-40 5 -52 34 -81 29 -29 41 -34 80 -34 119 0 211 99 223 241 l6 59 -49 -1
c-27 -1 -71 -5 -97 -9z"/>
<path d="M11265 1511 c-22 -10 -48 -27 -57 -37 -23 -26 -50 -92 -43 -104 8
-12 322 -13 329 -2 11 18 -15 79 -46 109 -58 56 -114 66 -183 34z"/>
<path d="M13530 1515 c-46 -21 -68 -42 -92 -88 -33 -65 -29 -67 152 -67 l160
0 0 29 c0 32 -33 85 -71 114 -36 26 -105 31 -149 12z"/>
<path d="M15616 1520 c-58 -18 -131 -117 -111 -150 4 -6 68 -10 167 -10 l161
0 -6 37 c-16 93 -117 153 -211 123z"/>
<path d="M16840 1519 c-56 -22 -135 -128 -112 -151 5 -5 80 -7 168 -6 l159 3
-1 32 c-4 87 -126 157 -214 122z"/>
</g>
</svg>
